<?xml version="1.0" encoding="UTF-8"?><svg id="Layer_1" xmlns="http://www.w3.org/2000/svg" viewBox="0 0 635 927.9"><defs><style>.cls-1{fill:#121212;}</style></defs><path class="cls-1" d="M365,502.8c11.9-5.7,23.3-12.1,35.7-16.7,80.7-30.4,168.8-8.9,234.2,44.3l-11.9,9.1c-93.6,62.4-212.3,66.6-304.7-.6-.8-.8.9-2,1.5-2.5,19.4-17.5,33-21.6,48.8-45.2,15.4-23,27.4-50.6,33.2-77.8l-10.8,20.2c-15.8,26.7-34.8,51.8-58.2,72.3l24.5-40c37.5-72,43-153.8-13-218-3.1-3.5-24.2-25-26.9-24.8-33.9,25.4-59.6,65.4-66.4,107.6-7.5,47,5,94.5,26.2,136.2l20.5,34c-.2.2-2.9-1.6-3.5-2-15.6-12.1-36.4-41.9-46.9-59.1l-14.6-25.4c8.2,35.8,25.7,69,49,97l34.4,25.4c1.3.3.8,1.3.2,2.1-1.7,2.1-17.7,11.8-21.2,13.8-56.9,32.6-123.2,43.5-187.5,28.9-38.7-8.8-76.3-27.4-107.8-51.2,72.2-57.9,167.8-77.5,253.4-36.4,6.3,3,12.1,7.3,18.6,9.8-17.9-19.7-35.2-39.4-49.4-62.1-49.8-79.2-65.1-177.8-35.9-267.7C209.7,103.3,259.9,45.3,317.5,0c57.5,44.8,106.8,101.2,130.5,171.3,31.1,91.9,15,191.7-36.6,272.4-13.5,21.2-29.8,40.4-46.4,59.1ZM269,530.8c-9.1-3.8-17.3-9.3-26.3-13.2-63.9-27.9-143.6-25.5-202.7,12.7,65,36.9,144.6,40.3,212.9,10,4.2-1.9,11.1-4.8,14.7-7.2s1.8.1,1.3-2.2ZM366,532.8c70.9,37.9,159.1,37.5,229-2.5-59.9-38.7-140.8-40.7-205.3-11.4s-16,7.6-22.4,11.6c-1,.6-1.8-.1-1.3,2.2Z"/><path class="cls-1" d="M267.5,674.8c1.3-.4,7.4-11.2,8.7-13.3,13-21.4,25.6-49.3,40-69s1-2,2.3-1.7l48.5,84h98l-48,84.5c13.4,26.3,30.7,50.7,44.1,76.8,1.2,2.4,3,4.8,2.8,7.7h-97l-48.5,84c-1.4.3-1.7-.8-2.3-1.7-3.1-4.1-6.5-11-9.3-15.7-13.1-21.9-26.1-44.1-37.8-66.7h-98l47.6-84.5-47.6-84.5h96.5ZM338,674.8l-20.5-35-19.5,35h40ZM253,700.8h-38c4.4,8.6,8.9,17.3,13.8,25.7s3.7,7.3,5.7,7.3l18.5-33ZM353.8,701l-71.9.5-32.8,57.9,33.1,58.3h71.6s33-58.1,33-58.1l-33-58.5ZM421,700.8h-39c6.7,9.7,11.4,20.9,17.8,30.7s1,2.6,2.7,2.3l18.5-33ZM215,817.8h38l-18.5-33-2.3,1.7-17.2,31.3ZM421,817.8l-17.2-30.3-2.8-2.7-18,33h38ZM338,843.8h-41c7.1,10.3,11.9,22.3,18.8,32.7.7,1.1,1,2.6,2.7,2.3l19.5-35Z"/></svg>